<svg width="12.000000" height="12.000000" viewBox="0 0 12 12" fill="none" xmlns="http://www.w3.org/2000/svg" xmlns:xlink="http://www.w3.org/1999/xlink">
	<desc>
			Created with Pixso.
	</desc>
	<defs/>
	<path id="Vector" d="M10.5 11L1.5 11C1.29 11 1.12 10.83 1.12 10.62C1.12 10.41 1.29 10.25 1.5 10.25L10.5 10.25C10.7 10.25 10.87 10.41 10.87 10.62C10.87 10.83 10.7 11 10.5 11Z" fill="#999999" fill-opacity="1.000000" fill-rule="nonzero"/>
	<path id="Vector" d="M9.51 1.73C8.54 0.77 7.59 0.74 6.59 1.73L5.98 2.34C5.93 2.39 5.91 2.47 5.93 2.54C6.32 3.87 7.38 4.93 8.7 5.31C8.72 5.31 8.74 5.32 8.76 5.32C8.82 5.32 8.87 5.3 8.91 5.26L9.51 4.65C10 4.16 10.24 3.69 10.24 3.2C10.25 2.71 10.01 2.23 9.51 1.73Z" fill="#999999" fill-opacity="1.000000" fill-rule="nonzero"/>
	<path id="Vector" d="M7.8 5.76C7.65 5.69 7.52 5.62 7.38 5.54C7.27 5.47 7.16 5.4 7.06 5.33C6.97 5.27 6.87 5.19 6.78 5.11C6.77 5.11 6.73 5.08 6.69 5.04C6.53 4.9 6.34 4.72 6.18 4.52C6.16 4.51 6.14 4.47 6.1 4.43C6.05 4.37 5.97 4.27 5.89 4.15C5.83 4.08 5.77 3.97 5.7 3.86C5.62 3.72 5.55 3.59 5.48 3.45C5.39 3.25 5.13 3.19 4.98 3.35L2.16 6.16C2.1 6.22 2.04 6.35 2.03 6.43L1.76 8.35C1.7 8.69 1.8 9.01 2.01 9.22C2.19 9.4 2.44 9.5 2.71 9.5C2.77 9.5 2.83 9.49 2.89 9.48L4.81 9.21C4.9 9.19 5.03 9.13 5.08 9.07L7.9 6.25C8.05 6.1 8 5.84 7.8 5.76Z" fill="#999999" fill-opacity="1.000000" fill-rule="nonzero"/>
	<g opacity="0.000000"/>
</svg>
